<?xml version="1.0" encoding="utf-8"?>
<svg id="master-artboard" viewBox="0 0 64 64" xmlns="http://www.w3.org/2000/svg" width="64px" height="64px" version="1.1" style="shape-rendering:geometricPrecision; text-rendering:geometricPrecision; image-rendering:optimizeQuality; fill-rule:evenodd; clip-rule:evenodd">
    <defs>
        <style id="ee-google-fonts">
            @import url(https://fonts.googleapis.com/css?family=Bungee:400);

        </style>
    </defs>

    <metadata id="CorelCorpID_0Corel-Layer" />
    <path d="M 10.600000381469727 54 L 4.380000114440918 54 C 3.8533332347869873 54 3.4700000286102295 53.88333511352539 3.2300000190734863 53.650001525878906 C 2.996666669845581 53.40999984741211 2.880000114440918 53.02666473388672 2.880000114440918 52.5 L 2.880000114440918 25.450000762939453 C 2.880000114440918 24.9233341217041 2.996666669845581 24.540000915527344 3.2300000190734863 24.299999237060547 C 3.4700000286102295 24.066667556762695 3.8533332347869873 23.950000762939453 4.380000114440918 23.950000762939453 L 11.100000381469727 23.950000762939453 C 11.546667098999023 23.950000762939453 11.916666984558105 24.046667098999023 12.210000038146973 24.239999771118164 C 12.50333309173584 24.433332443237305 12.773333549499512 24.753334045410156 13.020000457763672 25.200000762939453 L 16.780000686645508 32 C 16.920000076293945 32.253334045410156 17.036666870117188 32.43333435058594 17.1299991607666 32.540000915527344 C 17.229999542236328 32.65333557128906 17.363332748413086 32.709999084472656 17.530000686645508 32.709999084472656 L 17.90999984741211 32.709999084472656 C 18.0766658782959 32.709999084472656 18.206666946411133 32.65333557128906 18.299999237060547 32.540000915527344 C 18.399999618530273 32.43333435058594 18.520000457763672 32.253334045410156 18.65999984741211 32 L 22.3700008392334 25.200000762939453 C 22.623332977294922 24.753334045410156 22.89666748046875 24.433332443237305 23.190000534057617 24.239999771118164 C 23.483333587646484 24.046667098999023 23.850000381469727 23.950000762939453 24.290000915527344 23.950000762939453 L 31.059999465942383 23.950000762939453 C 31.586666107177734 23.950000762939453 31.96666717529297 24.066667556762695 32.20000076293945 24.299999237060547 C 32.439998626708984 24.540000915527344 32.560001373291016 24.9233341217041 32.560001373291016 25.450000762939453 L 32.560001373291016 52.5 C 32.560001373291016 53.02666473388672 32.439998626708984 53.40999984741211 32.20000076293945 53.650001525878906 C 31.96666717529297 53.88333511352539 31.586666107177734 54 31.059999465942383 54 L 24.6299991607666 54 C 24.09666633605957 54 23.713333129882812 53.88333511352539 23.479999542236328 53.650001525878906 C 23.239999771118164 53.40999984741211 23.1200008392334 53.02666473388672 23.1200008392334 52.5 L 23.1200008392334 37.79999923706055 L 20.65999984741211 42.349998474121094 C 20.413333892822266 42.823333740234375 20.113332748413086 43.16666793823242 19.760000228881836 43.380001068115234 C 19.413333892822266 43.586666107177734 18.976667404174805 43.689998626708984 18.450000762939453 43.689998626708984 L 16.780000686645508 43.689998626708984 C 16.253334045410156 43.689998626708984 15.816666603088379 43.586666107177734 15.470000267028809 43.380001068115234 C 15.116666793823242 43.16666793823242 14.816666603088379 42.823333740234375 14.569999694824219 42.349998474121094 L 12.109999656677246 37.79999923706055 L 12.109999656677246 52.5 C 12.109999656677246 53.02666473388672 11.989999771118164 53.40999984741211 11.75 53.650001525878906 C 11.516666412353516 53.88333511352539 11.133333206176758 54 10.600000381469727 54 ZM 47.747257232666016 31.459999084472656 L 47.747257232666016 36.79999923706055 L 50.877254486083984 36.79999923706055 C 51.603919982910156 36.79999923706055 52.09392166137695 36.61333465576172 52.34725570678711 36.23999786376953 C 52.59392166137695 35.866668701171875 52.717254638671875 35.400001525878906 52.717254638671875 34.84000015258789 L 52.717254638671875 33.41999816894531 C 52.717254638671875 32.866668701171875 52.59392166137695 32.400001525878906 52.34725570678711 32.02000045776367 C 52.09392166137695 31.64666748046875 51.603919982910156 31.459999084472656 50.877254486083984 31.459999084472656 L 47.747257232666016 31.459999084472656 M 46.247257232666016 54 L 39.817256927490234 54 C 39.29058837890625 54 38.907257080078125 53.88333511352539 38.66725540161133 53.650001525878906 C 38.433921813964844 53.40999984741211 38.317256927490234 53.02666473388672 38.317256927490234 52.5 L 38.317256927490234 25.450000762939453 C 38.317256927490234 24.9233341217041 38.433921813964844 24.540000915527344 38.66725540161133 24.299999237060547 C 38.907257080078125 24.066667556762695 39.29058837890625 23.950000762939453 39.817256927490234 23.950000762939453 L 53.717254638671875 23.950000762939453 C 56.837257385253906 23.950000762939453 58.98725509643555 24.59666633605957 60.16725540161133 25.889999389648438 C 61.353919982910156 27.183332443237305 61.94725799560547 28.860000610351562 61.94725799560547 30.920000076293945 L 61.94725799560547 32.84000015258789 C 61.94725799560547 34.00666809082031 61.770591735839844 35 61.41725540161133 35.81999969482422 C 61.070587158203125 36.63999938964844 60.467254638671875 37.233333587646484 59.60725402832031 37.599998474121094 C 61.10725402832031 37.766666412353516 62.32392120361328 38.37666702270508 63.25725555419922 39.43000030517578 C 64.19058990478516 40.48999786376953 64.65725708007812 41.89666748046875 64.65725708007812 43.650001525878906 L 64.65725708007812 52.5 C 64.65725708007812 53.02666473388672 64.5372543334961 53.40999984741211 64.29725646972656 53.650001525878906 C 64.06391906738281 53.88333511352539 63.683921813964844 54 63.157257080078125 54 L 56.687255859375 54 C 56.15392303466797 54 55.770591735839844 53.88333511352539 55.537254333496094 53.650001525878906 C 55.29725646972656 53.40999984741211 55.17725372314453 53.02666473388672 55.17725372314453 52.5 L 55.17725372314453 46.11000061035156 C 55.17725372314453 45.496665954589844 55.06058883666992 45.0433349609375 54.82725524902344 44.75 C 54.587257385253906 44.46333312988281 54.17725372314453 44.31999969482422 53.59725570678711 44.31999969482422 L 47.747257232666016 44.31999969482422 L 47.747257232666016 52.5 C 47.747257232666016 53.02666473388672 47.63058853149414 53.40999984741211 47.397254943847656 53.650001525878906 C 47.157257080078125 53.88333511352539 46.773921966552734 54 46.247257232666016 54 Z" transform="matrix(0.958279550075531, 0, 0, 0.958279550075531, -0.2638121545314789, -7.417427062988281)" style="fill: rgb(255, 21, 0); white-space: pre; color: rgb(51, 51, 51);" />
</svg>
